<?xml version="1.0" encoding="utf-8"?>
<!-- Generator: Adobe Illustrator 17.1.0, SVG Export Plug-In . SVG Version: 6.00 Build 0)  -->
<!DOCTYPE svg PUBLIC "-//W3C//DTD SVG 1.1//EN" "http://www.w3.org/Graphics/SVG/1.1/DTD/svg11.dtd">

<svg version="1.1" id="Layer_1" xmlns="http://www.w3.org/2000/svg" xmlns:xlink="http://www.w3.org/1999/xlink" x="0px" y="0px"
      viewBox="65 15 130 70" style=" background-color: #7D7D7D; Border: 4px #7D7D7D solid" xml:space="preserve">
      <style>
    .sample:hover {
      fill: #7D7D7D;
      stroke: #7D7D7D;
      stroke-width: .1px;
    }
  </style>
                
                <!--graph starts
          <path stroke="green" stroke-width=".1" opacity=".3" d="M1 0 V100" />
          <path stroke="green" stroke-width=".1" opacity=".3" d="M2 0 V100" />
          <path stroke="green" stroke-width=".1" opacity=".3" d="M3 0 V100" />
          <path stroke="green" stroke-width=".1" opacity=".3" d="M4 0 V100" />
          <path stroke="green" stroke-width=".2" opacity=".4" d="M5 0 V100" />
          <path stroke="green" stroke-width=".1" opacity=".3" d="M6 0 V100" />
          <path stroke="green" stroke-width=".1" opacity=".3" d="M7 0 V100" />
          <path stroke="green" stroke-width=".1" opacity=".3" d="M8 0 V100" />
          <path stroke="green" stroke-width=".1" opacity=".3" d="M9 0 V100" />
        
          <path stroke="green" stroke-width=".2" opacity=".6" d="M10 0 V100" />
          <path stroke="green" stroke-width=".1" opacity=".3" d="M11 0 V100" />
          <path stroke="green" stroke-width=".1" opacity=".3" d="M12 0 V100" />
          <path stroke="green" stroke-width=".1" opacity=".3" d="M13 0 V100" />
          <path stroke="green" stroke-width=".1" opacity=".3" d="M14 0 V100" />
          <path stroke="green" stroke-width=".2" opacity=".4" d="M15 0 V100" />
          <path stroke="green" stroke-width=".1" opacity=".3" d="M16 0 V100" />
          <path stroke="green" stroke-width=".1" opacity=".3" d="M17 0 V100" />
          <path stroke="green" stroke-width=".1" opacity=".3" d="M18 0 V100" />
          <path stroke="green" stroke-width=".1" opacity=".3" d="M19 0 V100" />
        
        
          <path stroke="green" stroke-width=".2" opacity=".6" d="M20 0 V100" />
          <path stroke="green" stroke-width=".1" opacity=".3" d="M21 0 V100" />
          <path stroke="green" stroke-width=".1" opacity=".3" d="M22 0 V100" />
          <path stroke="green" stroke-width=".1" opacity=".3" d="M23 0 V100" />
          <path stroke="green" stroke-width=".1" opacity=".3" d="M24 0 V100" />
          <path stroke="green" stroke-width=".2" opacity=".4" d="M25 0 V100" />
          <path stroke="green" stroke-width=".1" opacity=".3" d="M26 0 V100" />
          <path stroke="green" stroke-width=".1" opacity=".3" d="M27 0 V100" />
          <path stroke="green" stroke-width=".1" opacity=".3" d="M28 0 V100" />
          <path stroke="green" stroke-width=".1" opacity=".3" d="M29 0 V100" />
        
        
          <path stroke="green" stroke-width=".2" opacity=".6" d="M30 0 V100" />
          <path stroke="green" stroke-width=".1" opacity=".3" d="M31 0 V100" />
          <path stroke="green" stroke-width=".1" opacity=".3" d="M32 0 V100" />
          <path stroke="green" stroke-width=".1" opacity=".3" d="M33 0 V100" />
          <path stroke="green" stroke-width=".1" opacity=".3" d="M34 0 V100" />
          <path stroke="green" stroke-width=".2" opacity=".4" d="M35 0 V100" />
          <path stroke="green" stroke-width=".1" opacity=".3" d="M36 0 V100" />
          <path stroke="green" stroke-width=".1" opacity=".3" d="M37 0 V100" />
          <path stroke="green" stroke-width=".1" opacity=".3" d="M38 0 V100" />
          <path stroke="green" stroke-width=".1" opacity=".3" d="M39 0 V100" />
        
          <path stroke="green" stroke-width=".2" opacity=".6" d="M40 0 V100" />
          <path stroke="green" stroke-width=".1" opacity=".3" d="M41 0 V100" />
          <path stroke="green" stroke-width=".1" opacity=".3" d="M42 0 V100" />
          <path stroke="green" stroke-width=".1" opacity=".3" d="M43 0 V100" />
          <path stroke="green" stroke-width=".1" opacity=".3" d="M44 0 V100" />
          <path stroke="green" stroke-width=".2" opacity=".4" d="M45 0 V100" />
          <path stroke="green" stroke-width=".1" opacity=".3" d="M46 0 V100" />
          <path stroke="green" stroke-width=".1" opacity=".3" d="M47 0 V100" />
          <path stroke="green" stroke-width=".1" opacity=".3" d="M48 0 V100" />
          <path stroke="green" stroke-width=".1" opacity=".3" d="M49 0 V100" />
        
          <path stroke="green" stroke-width=".2" opacity=".6" d="M50 0 V100" />
          <path stroke="green" stroke-width=".1" opacity=".3" d="M51 0 V100" />
          <path stroke="green" stroke-width=".1" opacity=".3" d="M52 0 V100" />
          <path stroke="green" stroke-width=".1" opacity=".3" d="M53 0 V100" />
          <path stroke="green" stroke-width=".1" opacity=".3" d="M54 0 V100" />
          <path stroke="green" stroke-width=".2" opacity=".4" d="M55 0 V100" />
          <path stroke="green" stroke-width=".1" opacity=".3" d="M56 0 V100" />
          <path stroke="green" stroke-width=".1" opacity=".3" d="M57 0 V100" />
          <path stroke="green" stroke-width=".1" opacity=".3" d="M58 0 V100" />
          <path stroke="green" stroke-width=".1" opacity=".3" d="M59 0 V100" />
        
          <path stroke="green" stroke-width=".2" opacity=".6" d="M60 0 V100" />
          <path stroke="green" stroke-width=".1" opacity=".3" d="M61 0 V100" />
          <path stroke="green" stroke-width=".1" opacity=".3" d="M62 0 V100" />
          <path stroke="green" stroke-width=".1" opacity=".3" d="M63 0 V100" />
          <path stroke="green" stroke-width=".1" opacity=".3" d="M64 0 V100" />
          <path stroke="green" stroke-width=".2" opacity=".4" d="M65 0 V100" />
          <path stroke="green" stroke-width=".1" opacity=".3" d="M66 0 V100" />
          <path stroke="green" stroke-width=".1" opacity=".3" d="M67 0 V100" />
          <path stroke="green" stroke-width=".1" opacity=".3" d="M68 0 V100" />
          <path stroke="green" stroke-width=".1" opacity=".3" d="M69 0 V100" />
        
          <path stroke="green" stroke-width=".2" opacity=".6" d="M70 0 V100" />
          <path stroke="green" stroke-width=".1" opacity=".3" d="M71 0 V100" />
          <path stroke="green" stroke-width=".1" opacity=".3" d="M72 0 V100" />
          <path stroke="green" stroke-width=".1" opacity=".3" d="M73 0 V100" />
          <path stroke="green" stroke-width=".1" opacity=".3" d="M74 0 V100" />
          <path stroke="green" stroke-width=".2" opacity=".4" d="M75 0 V100" />
          <path stroke="green" stroke-width=".1" opacity=".3" d="M76 0 V100" />
          <path stroke="green" stroke-width=".1" opacity=".3" d="M77 0 V100" />
          <path stroke="green" stroke-width=".1" opacity=".3" d="M78 0 V100" />
          <path stroke="green" stroke-width=".1" opacity=".3" d="M79 0 V100" />
        
          <path stroke="green" stroke-width=".2" opacity=".6" d="M80 0 V100" />
          <path stroke="green" stroke-width=".1" opacity=".3" d="M81 0 V100" />
          <path stroke="green" stroke-width=".1" opacity=".3" d="M82 0 V100" />
          <path stroke="green" stroke-width=".1" opacity=".3" d="M83 0 V100" />
          <path stroke="green" stroke-width=".1" opacity=".3" d="M84 0 V100" />
          <path stroke="green" stroke-width=".2" opacity=".4" d="M85 0 V100" />
          <path stroke="green" stroke-width=".1" opacity=".3" d="M86 0 V100" />
          <path stroke="green" stroke-width=".1" opacity=".3" d="M87 0 V100" />
          <path stroke="green" stroke-width=".1" opacity=".3" d="M88 0 V100" />
          <path stroke="green" stroke-width=".1" opacity=".3" d="M89 0 V100" />
        
          <path stroke="green" stroke-width=".2" opacity=".6" d="M90 0 V100" />
          <path stroke="green" stroke-width=".1" opacity=".3" d="M91 0 V100" />
          <path stroke="green" stroke-width=".1" opacity=".3" d="M92 0 V100" />
          <path stroke="green" stroke-width=".1" opacity=".3" d="M93 0 V100" />
          <path stroke="green" stroke-width=".1" opacity=".3" d="M94 0 V100" />
          <path stroke="green" stroke-width=".2" opacity=".4" d="M95 0 V100" />
          <path stroke="green" stroke-width=".1" opacity=".3" d="M96 0 V100" />
          <path stroke="green" stroke-width=".1" opacity=".3" d="M97 0 V100" />
          <path stroke="green" stroke-width=".1" opacity=".3" d="M98 0 V100" />
          <path stroke="green" stroke-width=".1" opacity=".3" d="M99 0 V100" />
        
          <path stroke="red" stroke-width=".2" opacity=".6" d="M100 0 V100" />
          <path stroke="green" stroke-width=".1" opacity=".3" d="M101 0 V100" />
          <path stroke="green" stroke-width=".1" opacity=".3" d="M102 0 V100" />
          <path stroke="green" stroke-width=".1" opacity=".3" d="M103 0 V100" />
          <path stroke="green" stroke-width=".1" opacity=".3" d="M104 0 V100" />
          <path stroke="green" stroke-width=".2" opacity=".4" d="M105 0 V100" />
          <path stroke="green" stroke-width=".1" opacity=".3" d="M106 0 V100" />
          <path stroke="green" stroke-width=".1" opacity=".3" d="M107 0 V100" />
          <path stroke="green" stroke-width=".1" opacity=".3" d="M108 0 V100" />
          <path stroke="green" stroke-width=".1" opacity=".3" d="M109 0 V100" />
        
          <path stroke="green" stroke-width=".2" opacity=".6" d="M110 0 V100" />
          <path stroke="green" stroke-width=".1" opacity=".3" d="M111 0 V100" />
          <path stroke="green" stroke-width=".1" opacity=".3" d="M112 0 V100" />
          <path stroke="green" stroke-width=".1" opacity=".3" d="M113 0 V100" />
          <path stroke="green" stroke-width=".1" opacity=".3" d="M114 0 V100" />
          <path stroke="green" stroke-width=".2" opacity=".4" d="M115 0 V100" />
          <path stroke="green" stroke-width=".1" opacity=".3" d="M116 0 V100" />
          <path stroke="green" stroke-width=".1" opacity=".3" d="M117 0 V100" />
          <path stroke="green" stroke-width=".1" opacity=".3" d="M118 0 V100" />
          <path stroke="green" stroke-width=".1" opacity=".3" d="M119 0 V100" />
        
          <path stroke="green" stroke-width=".2" opacity=".6" d="M120 0 V100" />
          <path stroke="green" stroke-width=".1" opacity=".3" d="M121 0 V100" />
          <path stroke="green" stroke-width=".1" opacity=".3" d="M122 0 V100" />
          <path stroke="green" stroke-width=".1" opacity=".3" d="M123 0 V100" />
          <path stroke="green" stroke-width=".1" opacity=".3" d="M124 0 V100" />
          <path stroke="green" stroke-width=".2" opacity=".4" d="M125 0 V100" />
          <path stroke="green" stroke-width=".1" opacity=".3" d="M126 0 V100" />
          <path stroke="green" stroke-width=".1" opacity=".3" d="M127 0 V100" />
          <path stroke="green" stroke-width=".1" opacity=".3" d="M128 0 V100" />
          <path stroke="green" stroke-width=".1" opacity=".3" d="M129 0 V100" />
        
          <path stroke="green" stroke-width=".2" opacity=".6" d="M130 0 V100" />
          <path stroke="green" stroke-width=".1" opacity=".3" d="M131 0 V100" />
          <path stroke="green" stroke-width=".1" opacity=".3" d="M132 0 V100" />
          <path stroke="green" stroke-width=".1" opacity=".3" d="M133 0 V100" />
          <path stroke="green" stroke-width=".1" opacity=".3" d="M134 0 V100" />
          <path stroke="green" stroke-width=".2" opacity=".4" d="M135 0 V100" />
          <path stroke="green" stroke-width=".1" opacity=".3" d="M136 0 V100" />
          <path stroke="green" stroke-width=".1" opacity=".3" d="M137 0 V100" />
          <path stroke="green" stroke-width=".1" opacity=".3" d="M138 0 V100" />
          <path stroke="green" stroke-width=".1" opacity=".3" d="M139 0 V100" />
        
          <path stroke="green" stroke-width=".2" opacity=".6" d="M140 0 V100" />
          <path stroke="green" stroke-width=".1" opacity=".3" d="M141 0 V100" />
          <path stroke="green" stroke-width=".1" opacity=".3" d="M142 0 V100" />
          <path stroke="green" stroke-width=".1" opacity=".3" d="M143 0 V100" />
          <path stroke="green" stroke-width=".1" opacity=".3" d="M144 0 V100" />
          <path stroke="green" stroke-width=".2" opacity=".4" d="M145 0 V100" />
          <path stroke="green" stroke-width=".1" opacity=".3" d="M146 0 V100" />
          <path stroke="green" stroke-width=".1" opacity=".3" d="M147 0 V100" />
          <path stroke="green" stroke-width=".1" opacity=".3" d="M148 0 V100" />
          <path stroke="green" stroke-width=".1" opacity=".3" d="M149 0 V100" />
        
          <path stroke="green" stroke-width=".2" opacity=".6" d="M150 0 V100" />
          <path stroke="green" stroke-width=".1" opacity=".3" d="M151 0 V100" />
          <path stroke="green" stroke-width=".1" opacity=".3" d="M152 0 V100" />
          <path stroke="green" stroke-width=".1" opacity=".3" d="M153 0 V100" />
          <path stroke="green" stroke-width=".1" opacity=".3" d="M154 0 V100" />
          <path stroke="green" stroke-width=".2" opacity=".4" d="M155 0 V100" />
          <path stroke="green" stroke-width=".1" opacity=".3" d="M156 0 V100" />
          <path stroke="green" stroke-width=".1" opacity=".3" d="M157 0 V100" />
          <path stroke="green" stroke-width=".1" opacity=".3" d="M158 0 V100" />
          <path stroke="green" stroke-width=".1" opacity=".3" d="M159 0 V100" />
        
          <path stroke="green" stroke-width=".2" opacity=".6" d="M160 0 V100" />
          <path stroke="green" stroke-width=".1" opacity=".3" d="M161 0 V100" />
          <path stroke="green" stroke-width=".1" opacity=".3" d="M162 0 V100" />
          <path stroke="green" stroke-width=".1" opacity=".3" d="M163 0 V100" />
          <path stroke="green" stroke-width=".1" opacity=".3" d="M164 0 V100" />
          <path stroke="green" stroke-width=".2" opacity=".4" d="M165 0 V100" />
          <path stroke="green" stroke-width=".1" opacity=".3" d="M166 0 V100" />
          <path stroke="green" stroke-width=".1" opacity=".3" d="M167 0 V100" />
          <path stroke="green" stroke-width=".1" opacity=".3" d="M168 0 V100" />
          <path stroke="green" stroke-width=".1" opacity=".3" d="M169 0 V100" />
        
          <path stroke="green" stroke-width=".2" opacity=".6" d="M170 0 V100" />
          <path stroke="green" stroke-width=".1" opacity=".3" d="M171 0 V100" />
          <path stroke="green" stroke-width=".1" opacity=".3" d="M172 0 V100" />
          <path stroke="green" stroke-width=".1" opacity=".3" d="M173 0 V100" />
          <path stroke="green" stroke-width=".1" opacity=".3" d="M174 0 V100" />
          <path stroke="green" stroke-width=".2" opacity=".4" d="M175 0 V100" />
          <path stroke="green" stroke-width=".1" opacity=".3" d="M176 0 V100" />
          <path stroke="green" stroke-width=".1" opacity=".3" d="M177 0 V100" />
          <path stroke="green" stroke-width=".1" opacity=".3" d="M178 0 V100" />
          <path stroke="green" stroke-width=".1" opacity=".3" d="M179 0 V100" />
        
          <path stroke="green" stroke-width=".2" opacity=".6" d="M180 0 V100" />
          <path stroke="green" stroke-width=".1" opacity=".3" d="M181 0 V100" />
          <path stroke="green" stroke-width=".1" opacity=".3" d="M182 0 V100" />
          <path stroke="green" stroke-width=".1" opacity=".3" d="M183 0 V100" />
          <path stroke="green" stroke-width=".1" opacity=".3" d="M184 0 V100" />
          <path stroke="green" stroke-width=".2" opacity=".4" d="M185 0 V100" />
          <path stroke="green" stroke-width=".1" opacity=".3" d="M186 0 V100" />
          <path stroke="green" stroke-width=".1" opacity=".3" d="M187 0 V100" />
          <path stroke="green" stroke-width=".1" opacity=".3" d="M188 0 V100" />
          <path stroke="green" stroke-width=".1" opacity=".3" d="M189 0 V100" />
        
          <path stroke="green" stroke-width=".2" opacity=".6" d="M190 0 V100" />
          <path stroke="green" stroke-width=".1" opacity=".3" d="M191 0 V100" />
          <path stroke="green" stroke-width=".1" opacity=".3" d="M192 0 V100" />
          <path stroke="green" stroke-width=".1" opacity=".3" d="M193 0 V100" />
          <path stroke="green" stroke-width=".1" opacity=".3" d="M194 0 V100" />
          <path stroke="green" stroke-width=".2" opacity=".4" d="M195 0 V100" />
          <path stroke="green" stroke-width=".1" opacity=".3" d="M196 0 V100" />
          <path stroke="green" stroke-width=".1" opacity=".3" d="M197 0 V100" />
          <path stroke="green" stroke-width=".1" opacity=".3" d="M198 0 V100" />
          <path stroke="green" stroke-width=".1" opacity=".3" d="M199 0 V100" />
          <path stroke="green" stroke-width=".2" opacity=".6" d="M200 0 V100" />
        
          <path stroke="purple" stroke-width=".1" opacity=".3" d="M0 1 H200" />
          <path stroke="purple" stroke-width=".1" opacity=".3" d="M0 2 H200" />
          <path stroke="purple" stroke-width=".1" opacity=".3" d="M0 3 H200" />
          <path stroke="purple" stroke-width=".1" opacity=".3" d="M0 4 H200" />
          <path stroke="purple" stroke-width=".2" opacity=".4" d="M0 5 H200" />
          <path stroke="purple" stroke-width=".1" opacity=".3" d="M0 6 H200" />
          <path stroke="purple" stroke-width=".1" opacity=".3" d="M0 7 H200" />
          <path stroke="purple" stroke-width=".1" opacity=".3" d="M0 8 H200" />
          <path stroke="purple" stroke-width=".1" opacity=".3" d="M0 9 H200" />
        
          <path stroke="purple" stroke-width=".2" opacity=".6" d="M0 10 H200" />
          <path stroke="purple" stroke-width=".1" opacity=".3" d="M0 11 H200" />
          <path stroke="purple" stroke-width=".1" opacity=".3" d="M0 12 H200" />
          <path stroke="purple" stroke-width=".1" opacity=".3" d="M0 13 H200" />
          <path stroke="purple" stroke-width=".1" opacity=".3" d="M0 14 H200" />
          <path stroke="purple" stroke-width=".2" opacity=".4" d="M0 15 H200" />
          <path stroke="purple" stroke-width=".1" opacity=".3" d="M0 16 H200" />
          <path stroke="purple" stroke-width=".1" opacity=".3" d="M0 17 H200" />
          <path stroke="purple" stroke-width=".1" opacity=".3" d="M0 18 H200" />
          <path stroke="purple" stroke-width=".1" opacity=".3" d="M0 19 H200" />
        
        
          <path stroke="purple" stroke-width=".2" opacity=".6" d="M0 20 H200" />
          <path stroke="purple" stroke-width=".1" opacity=".3" d="M0 21 H200" />
          <path stroke="purple" stroke-width=".1" opacity=".3" d="M0 22 H200" />
          <path stroke="purple" stroke-width=".1" opacity=".3" d="M0 23 H200" />
          <path stroke="purple" stroke-width=".1" opacity=".3" d="M0 24 H200" />
          <path stroke="purple" stroke-width=".2" opacity=".4" d="M0 25 H200" />
          <path stroke="purple" stroke-width=".1" opacity=".3" d="M0 26 H200" />
          <path stroke="purple" stroke-width=".1" opacity=".3" d="M0 27 H200" />
          <path stroke="purple" stroke-width=".1" opacity=".3" d="M0 28 H200" />
          <path stroke="purple" stroke-width=".1" opacity=".3" d="M0 29 H200" />
        
          <path stroke="purple" stroke-width=".2" opacity=".6" d="M0 30 H200" />
          <path stroke="purple" stroke-width=".1" opacity=".3" d="M0 31 H200" />
          <path stroke="purple" stroke-width=".1" opacity=".3" d="M0 32 H200" />
          <path stroke="purple" stroke-width=".1" opacity=".3" d="M0 33 H200" />
          <path stroke="purple" stroke-width=".1" opacity=".3" d="M0 34 H200" />
          <path stroke="purple" stroke-width=".2" opacity=".4" d="M0 35 H200" />
          <path stroke="purple" stroke-width=".1" opacity=".3" d="M0 36 H200" />
          <path stroke="purple" stroke-width=".1" opacity=".3" d="M0 37 H200" />
          <path stroke="purple" stroke-width=".1" opacity=".3" d="M0 38 H200" />
          <path stroke="purple" stroke-width=".1" opacity=".3" d="M0 39 H200" />
        
          <path stroke="purple" stroke-width=".2" opacity=".6" d="M0 40 H200" />
          <path stroke="purple" stroke-width=".1" opacity=".3" d="M0 41 H200" />
          <path stroke="purple" stroke-width=".1" opacity=".3" d="M0 42 H200" />
          <path stroke="purple" stroke-width=".1" opacity=".3" d="M0 43 H200" />
          <path stroke="purple" stroke-width=".1" opacity=".3" d="M0 44 H200" />
          <path stroke="purple" stroke-width=".2" opacity=".4" d="M0 45 H200" />
          <path stroke="purple" stroke-width=".1" opacity=".3" d="M0 46 H200" />
          <path stroke="purple" stroke-width=".1" opacity=".3" d="M0 47 H200" />
          <path stroke="purple" stroke-width=".1" opacity=".3" d="M0 48 H200" />
          <path stroke="purple" stroke-width=".1" opacity=".3" d="M0 49 H200" />
        
          <path stroke="red" stroke-width=".2" opacity=".6" d="M0 50 H200" />
          <path stroke="purple" stroke-width=".1" opacity=".3" d="M0 51 H200" />
          <path stroke="purple" stroke-width=".1" opacity=".3" d="M0 52 H200" />
          <path stroke="purple" stroke-width=".1" opacity=".3" d="M0 53 H200" />
          <path stroke="purple" stroke-width=".1" opacity=".3" d="M0 54 H200" />
          <path stroke="purple" stroke-width=".2" opacity=".4" d="M0 55 H200" />
          <path stroke="purple" stroke-width=".1" opacity=".3" d="M0 56 H200" />
          <path stroke="purple" stroke-width=".1" opacity=".3" d="M0 57 H200" />
          <path stroke="purple" stroke-width=".1" opacity=".3" d="M0 58 H200" />
          <path stroke="purple" stroke-width=".1" opacity=".3" d="M0 59 H200" />
        
          <path stroke="purple" stroke-width=".2" opacity=".6" d="M0 60 H200" />
          <path stroke="purple" stroke-width=".1" opacity=".3" d="M0 61 H200" />
          <path stroke="purple" stroke-width=".1" opacity=".3" d="M0 62 H200" />
          <path stroke="purple" stroke-width=".1" opacity=".3" d="M0 63 H200" />
          <path stroke="purple" stroke-width=".1" opacity=".3" d="M0 64 H200" />
          <path stroke="purple" stroke-width=".2" opacity=".4" d="M0 65 H200" />
          <path stroke="purple" stroke-width=".1" opacity=".3" d="M0 66 H200" />
          <path stroke="purple" stroke-width=".1" opacity=".3" d="M0 67 H200" />
          <path stroke="purple" stroke-width=".1" opacity=".3" d="M0 68 H200" />
          <path stroke="purple" stroke-width=".1" opacity=".3" d="M0 69 H200" />
        
        
          <path stroke="purple" stroke-width=".2" opacity=".6" d="M0 70 H200" />
          <path stroke="purple" stroke-width=".1" opacity=".3" d="M0 71 H200" />
          <path stroke="purple" stroke-width=".1" opacity=".3" d="M0 72 H200" />
          <path stroke="purple" stroke-width=".1" opacity=".3" d="M0 73 H200" />
          <path stroke="purple" stroke-width=".1" opacity=".3" d="M0 74 H200" />
          <path stroke="purple" stroke-width=".2" opacity=".4" d="M0 75 H200" />
          <path stroke="purple" stroke-width=".1" opacity=".3" d="M0 76 H200" />
          <path stroke="purple" stroke-width=".1" opacity=".3" d="M0 77 H200" />
          <path stroke="purple" stroke-width=".1" opacity=".3" d="M0 78 H200" />
          <path stroke="purple" stroke-width=".1" opacity=".3" d="M0 79 H200" />
        
        
          <path stroke="purple" stroke-width=".2" opacity=".6" d="M0 80 H200" />
          <path stroke="purple" stroke-width=".1" opacity=".3" d="M0 81 H200" />
          <path stroke="purple" stroke-width=".1" opacity=".3" d="M0 82 H200" />
          <path stroke="purple" stroke-width=".1" opacity=".3" d="M0 83 H200" />
          <path stroke="purple" stroke-width=".1" opacity=".3" d="M0 84 H200" />
          <path stroke="purple" stroke-width=".2" opacity=".4" d="M0 85 H200" />
          <path stroke="purple" stroke-width=".1" opacity=".3" d="M0 86 H200" />
          <path stroke="purple" stroke-width=".1" opacity=".3" d="M0 87 H200" />
          <path stroke="purple" stroke-width=".1" opacity=".3" d="M0 88 H200" />
          <path stroke="purple" stroke-width=".1" opacity=".3" d="M0 89 H200" /> 
          <path stroke="purple" stroke-width=".2" opacity=".6" d="M0 90 H200" />
          <path stroke="purple" stroke-width=".1" opacity=".3" d="M0 91 H200" />
          <path stroke="purple" stroke-width=".1" opacity=".3" d="M0 92 H200" />
          <path stroke="purple" stroke-width=".1" opacity=".3" d="M0 93 H200" />
          <path stroke="purple" stroke-width=".1" opacity=".3" d="M0 94 H200" />
          <path stroke="purple" stroke-width=".2" opacity=".4" d="M0 95 H200" />
          <path stroke="purple" stroke-width=".1" opacity=".3" d="M0 96 H200" />
          <path stroke="purple" stroke-width=".1" opacity=".3" d="M0 97 H200" />
          <path stroke="purple" stroke-width=".1" opacity=".3" d="M0 98 H200" />
          <path stroke="purple" stroke-width=".1" opacity=".3" d="M0 99 H200" />
          <path stroke="purple" stroke-width=".2" opacity=".6" d="M0 100 H200" />
        
          <text x="1" y="49" font-size="4">X</text>
          <text x="10" y="49.5" font-size="1">10X</text>
          <text x="20" y="49.5" font-size="1">20X</text>
          <text x="30" y="49.5" font-size="1">30X</text>
          <text x="40" y="49.5" font-size="1">40X</text>
          <text x="50" y="49.5" font-size="1">50X</text>
          <text x="60" y="49.5" font-size="1">60X</text>
          <text x="70" y="49.5" font-size="1">70X</text>
          <text x="80" y="49.5" font-size="1">80X</text>
          <text x="90" y="49.5" font-size="1">90X</text>
          <text x="100" y="49.5" font-size="1">100X</text>
          <text x="110" y="49.5" font-size="1">110X</text>
          <text x="120" y="49.5" font-size="1">120X</text>
          <text x="130" y="49.5" font-size="1">130X</text>
          <text x="140" y="49.5" font-size="1">140X</text>
          <text x="150" y="49.5" font-size="1">150X</text>
          <text x="160" y="49.5" font-size="1">160X</text>
          <text x="170" y="49.5" font-size="1">170X</text>
          <text x="180" y="49.5" font-size="1">180X</text>
          <text x="190" y="49.5" font-size="1">190X</text>
      
          <text x="101" y="3" font-size="4">Y</text>
          <text x="100.5" y="11" font-size="1">10Y</text>
          <text x="100.5" y="21" font-size="1">20Y</text>
          <text x="100.5" y="31" font-size="1">30Y</text>
          <text x="100.5" y="41" font-size="1">40Y</text>
          <text x="100.5" y="51" font-size="1">50Y</text>
          <text x="100.5" y="61" font-size="1">60Y</text>
          <text x="100.5" y="71" font-size="1">70Y</text>
          <text x="100.5" y="81" font-size="1">80Y</text>
          <text x="100.5" y="91" font-size="1">90Y</text>
graph ends-->
  
  <polygon class="sample" stroke="#7D7D7D" stroke-width="1" fill="none" opacity=".4" points="85 20, 115 20, 130 50, 115 80, 85 80, 70 50" />

  <!--Hexagon outline start
  <polyline stroke="black" stroke-width=".1" points="115 20, 85 80" />
  <polyline stroke="black" stroke-width=".1" points="105 20, 80 70" />
  <polyline stroke="black" stroke-width=".1" points="95 20, 75 60" />
  <polyline stroke="black" stroke-width=".1" points="120 30, 95 80" />
  <polyline stroke="black" stroke-width=".1" points="125 40, 105 80" />
  <polyline stroke="black" stroke-width=".1" points="85 20, 115 80" />
  <polyline stroke="black" stroke-width=".1" points="95 20, 120 70" />
  <polyline stroke="black" stroke-width=".1" points="105 20, 125 60" />
  <polyline stroke="black" stroke-width=".1" points="80 30, 105 80" />
  <polyline stroke="black" stroke-width=".1" points="75 40, 95 80" />
Hexagon outline end-->

  <polygon class="sample"  stroke="#9E9E9E" stroke-width=".1" fill="#9E9E9E" opacity="none" points="85 20, 90 30, 100 30, 95 20" />
  <polygon class="sample" stroke="#9E9E9E" stroke-width=".1" fill="#9E9E9E" opacity="none" points="100 30, 110 30, 115 40, 105 40" />
  <polygon class="sample" stroke="#9E9E9E" stroke-width=".1" fill="#9E9E9E" opacity="none" points="115 40, 125 40, 130 50, 120 50" />


  <!--dark portions-->
  <polygon class="sample" stroke="#9E9E9E" stroke-width=".1" fill="#9E9E9E" opacity="none" points="80 30, 85 40, 75 40" />
  <polygon class="sample" stroke="#9E9E9E" stroke-width=".1" fill="#9E9E9E" opacity="none" points="85 40, 95 40, 100 50, 90 50" />
  <polygon class="sample" stroke="#9E9E9E" stroke-width=".1" fill="#9E9E9E" opacity="none" points="100 50, 110 50, 115 60, 105 60" />
  <polygon class="sample" stroke="#9E9E9E" stroke-width=".1" fill="#9E9E9E" opacity="none" points="115 60, 125 60, 120 70" />
  <polygon class="sample" stroke="#9E9E9E" stroke-width=".1" fill="#9E9E9E" opacity="none" points="70 50, 80 50, 85 60, 75 60" />
  <polygon class="sample" stroke="#9E9E9E" stroke-width=".1" fill="#9E9E9E" opacity="none" points="85 60, 95 60, 100 70, 90 70" />
  <polygon class="sample" stroke="#9E9E9E" stroke-width=".1" fill="#9E9E9E" opacity="none" points="100 70, 110 70, 115 80, 105 80" />

  <!--medium dark portions-->
  <polygon class="sample" stroke="#BDBDBD" stroke-width=".1" fill="#BDBDBD" opacity="none" points="95 20, 100 30, 105 20" />
  <polygon class="sample" stroke="#BDBDBD" stroke-width=".1" fill="#BDBDBD" opacity="none" points="110 30, 115 20, 120 30, 115 40" />
  <polygon class="sample" stroke="#BDBDBD" stroke-width=".1" fill="#BDBDBD" opacity="none" points="110 50, 115 40, 120 50, 115 60" />
  <polygon class="sample" stroke="#BDBDBD" stroke-width=".1" fill="#BDBDBD" opacity="none" points="110 70, 115 60, 120 70, 115 80" />
  <polygon class="sample" stroke="#BDBDBD" stroke-width=".1" fill="#BDBDBD" opacity="none" points="95 40, 100 30, 105 40, 100 50" />
  <polygon class="sample" stroke="#BDBDBD" stroke-width=".1" fill="#BDBDBD" opacity="none" points="95 60, 100 50, 105 60, 100 70" />
  <polygon class="sample" stroke="#BDBDBD" stroke-width=".1" fill="#BDBDBD" opacity="none" points="95 80, 100 70, 105 80" />
  <polygon class="sample" stroke="#BDBDBD" stroke-width=".1" fill="#BDBDBD" opacity="none" points="80 30, 85 20, 90 30, 85 40" />
  <polygon class="sample" stroke="#BDBDBD" stroke-width=".1" fill="#BDBDBD" opacity="none" points="80 50, 85 40, 90 50, 85 60" />
  <polygon class="sample" stroke="#BDBDBD" stroke-width=".1" fill="#BDBDBD" opacity="none" points="80 70, 85 60, 90 70, 85 80" />
  
  
<!--light portions-->
  <polygon class="sample" stroke="#D3D3D3" stroke-width=".1" fill="#D3D3D3" opacity="none" points="70 50, 75 40, 85 40, 80 50" />
  <polygon class="sample" stroke="#D3D3D3" stroke-width=".1" fill="#D3D3D3" opacity="none" points="85 40, 90 30, 100 30, 95 40" />
  <polygon class="sample" stroke="#D3D3D3" stroke-width=".1" fill="#D3D3D3" opacity="none" points="100 30, 105 20, 115 20, 110 30" />
  <polygon class="sample" stroke="#D3D3D3" stroke-width=".1" fill="#D3D3D3" opacity="none" points="75 60, 85 60, 80 70" />
  <polygon class="sample" stroke="#D3D3D3" stroke-width=".1" fill="#D3D3D3" opacity="none" points="85 60, 90 50, 100 50, 95 60" />
  <polygon class="sample" stroke="#D3D3D3" stroke-width=".1" fill="#D3D3D3" opacity="none" points="100 50, 105 40, 115 40, 110 50" />
  <polygon class="sample" stroke="#D3D3D3" stroke-width=".1" fill="#D3D3D3" opacity="none" points="115 40, 120 30, 125 40"/>
  <polygon class="sample" stroke="#D3D3D3" stroke-width=".1" fill="#D3D3D3" opacity="none" points="85 80, 90 70, 100 70, 95 80" />
  <polygon class="sample" stroke="#D3D3D3" stroke-width=".1" fill="#D3D3D3" opacity="none" points="100 70, 105 60, 115 60, 110 70" />
  <polygon class="sample" stroke="#D3D3D3" stroke-width=".1" fill="#D3D3D3" opacity="none" points="115 60, 120 50, 130 50, 125 60" />

  </svg>
